<mxfile host="app.diagrams.net" modified="2024-06-11T02:26:02.627Z" agent="Mozilla/5.0 (X11; Linux x86_64) AppleWebKit/537.36 (KHTML, like Gecko) Chrome/123.0.0.0 Safari/537.36" version="24.5.2" etag="5MUCYSKeE8JT1Do5Bgtw" type="github">
  <diagram name="PÃ¡gina-1" id="q0qLVNpvfcmOE3oEs45M">
    <mxGraphModel>
      <root>
        <mxCell id="0" />
        <mxCell id="1" parent="0" />
      </root>
    </mxGraphModel>
  </diagram>
</mxfile>
